<?xml version="1.0" encoding="utf-8"?>
<!-- Generator: Adobe Illustrator 25.1.0, SVG Export Plug-In . SVG Version: 6.00 Build 0)  -->
<svg version="1.1" id="Layer_1" xmlns="http://www.w3.org/2000/svg" xmlns:xlink="http://www.w3.org/1999/xlink" x="0px" y="0px"
	 viewBox="0 0 100 101" style="enable-background:new 0 0 100 101;" xml:space="preserve">
<style type="text/css">
	.st0{stroke:#000000;stroke-width:3;stroke-miterlimit:10;}
</style>
<path class="st0" d="M89,88H51V71.2c9.4-0.6,16.9-8.8,16.9-18.8C67.9,29.4,59.7,10,50,10S32.1,29.4,32.1,52.3
	c0,10.1,7.5,18.3,16.9,18.8V88H11c-0.6,0-1,0.4-1,1s0.4,1,1,1h78c0.6,0,1-0.4,1-1S89.6,88,89,88z M34.1,52.3
	C34.1,30.8,41.5,12,50,12s15.9,18.8,15.9,40.3c0,9-6.6,16.3-14.9,16.8V53.8l6.5-6.5c0.4-0.4,0.4-1,0-1.4s-1-0.4-1.4,0L51,51v-6.8
	c0-0.6-0.4-1-1-1s-1,0.4-1,1v13.7l-5.2-5.2c-0.4-0.4-1-0.4-1.4,0s-0.4,1,0,1.4l6.6,6.6v8.5C40.7,68.6,34.1,61.3,34.1,52.3z"/>
</svg>
